<svg width="61" height="60" viewBox="0 0 61 60" fill="none" xmlns="http://www.w3.org/2000/svg">
<mask id="mask0_6108_29712" style="mask-type:alpha" maskUnits="userSpaceOnUse" x="7" y="6" width="48" height="48">
<path d="M48.0234 35H13.0234C10.262 35 8.02344 37.2386 8.02344 40V47.5C8.02344 50.2614 10.262 52.5 13.0234 52.5H48.0234C50.7849 52.5 53.0234 50.2614 53.0234 47.5V40C53.0234 37.2386 50.7849 35 48.0234 35Z" stroke="white" stroke-width="2"/>
<path d="M25.5234 8.75H13.0234C11.6974 8.75 10.4256 9.27678 9.4879 10.2145C8.55022 11.1521 8.02344 12.4239 8.02344 13.75V21.25C8.02344 22.5761 8.55022 23.8479 9.4879 24.7855C10.4256 25.7232 11.6974 26.25 13.0234 26.25H25.5234" stroke="white" stroke-width="2" stroke-linecap="round"/>
<path d="M43.0234 27.5C48.5463 27.5 53.0234 23.0228 53.0234 17.5C53.0234 11.9772 48.5463 7.5 43.0234 7.5C37.5006 7.5 33.0234 11.9772 33.0234 17.5C33.0234 23.0228 37.5006 27.5 43.0234 27.5Z" fill="white" stroke="white" stroke-width="2"/>
<path d="M43.0234 21.25C45.0945 21.25 46.7734 19.5711 46.7734 17.5C46.7734 15.4289 45.0945 13.75 43.0234 13.75C40.9524 13.75 39.2734 15.4289 39.2734 17.5C39.2734 19.5711 40.9524 21.25 43.0234 21.25Z" fill="black"/>
</mask>
<g mask="url(#mask0_6108_29712)">
<path d="M0.523438 0H60.5234V60H0.523438V0Z" fill="#C61531"/>
</g>
</svg>
