<svg width="18" height="25" viewBox="0 0 18 25" fill="none" xmlns="http://www.w3.org/2000/svg">
<path d="M10.1659 1.49967C10.1659 0.855342 9.64359 0.333008 8.99926 0.333008C8.35492 0.333008 7.83259 0.855342 7.83259 1.49967V3.24967C7.83259 3.28203 7.83391 3.31408 7.83649 3.34577C4.5239 3.89937 1.99926 6.77854 1.99926 10.2484V14.9163C1.99926 15.4999 1.52079 16.5119 0.997193 17.4446C0.260416 18.7571 0.39535 20.3395 1.80198 20.8751C3.2167 21.4137 5.47972 21.9163 8.99926 21.9163C12.5188 21.9163 14.7818 21.4137 16.1965 20.8751C17.6032 20.3395 17.7381 18.7571 17.0013 17.4446C16.4777 16.5119 15.9993 15.4999 15.9993 14.9163V10.249C15.9993 6.77909 13.4746 3.89948 10.162 3.34578C10.1646 3.31409 10.1659 3.28204 10.1659 3.24967V1.49967Z" fill="#667185"/>
<path d="M5.40604 22.8784C5.44959 22.9164 5.50218 22.9607 5.56343 23.0097C5.73877 23.15 5.98927 23.3318 6.30586 23.5127C6.93419 23.8717 7.8632 24.2497 8.99927 24.2497C10.1353 24.2497 11.0644 23.8717 11.6927 23.5127C12.0093 23.3318 12.2598 23.15 12.4351 23.0097C12.4964 22.9607 12.549 22.9164 12.5925 22.8784C11.5724 23.0054 10.383 23.0831 8.99927 23.0831C7.61559 23.0831 6.42612 23.0054 5.40604 22.8784Z" fill="#667185"/>
</svg>
