<svg width="126" height="40" viewBox="0 0 126 40" fill="none" xmlns="http://www.w3.org/2000/svg">
<path d="M47.6957 23.0159C47.6957 29.512 44.9121 35.3803 40.4357 39.565H7.35121C2.87482 35.3803 0.0917969 29.5121 0.0917969 23.0159C0.0917969 10.3044 10.7478 0 23.8931 0C37.0388 0 47.6957 10.3044 47.6957 23.0159Z" fill="black"/>
<path fill-rule="evenodd" clip-rule="evenodd" d="M8.1101 38.6784H36.837C40.6979 35.0541 43.0979 29.983 43.0979 24.3688C43.0979 13.3549 33.8642 4.42578 22.4733 4.42578C11.0833 4.42578 1.84961 13.3549 1.84961 24.3688C1.84961 29.983 4.24907 35.0541 8.11024 38.6784H8.1101Z" fill="url(#paint0_linear_6061_23078)"/>
<path d="M37.4377 38.3906H7.57422C7.99855 38.7628 8.44164 39.1188 8.90128 39.4581H36.1101C36.5703 39.1189 37.0131 38.7628 37.4377 38.3906Z" fill="black"/>
<path d="M33.5531 20.4422C33.5531 20.4422 33.9689 23.0429 30.5726 22.0235C30.5326 22.012 29.2844 21.797 28.7708 21.18C28.7708 21.18 26.4687 17.6997 23.905 17.5598C23.8634 17.5577 22.8828 17.5201 22.0201 17.5201C21.9785 17.5201 19.8712 17.3591 19.0393 16.3142C19.0035 16.269 17.4045 14.2357 15.8097 14.6518C15.77 14.6624 14.4233 14.4765 11.9151 17.8156C11.8905 17.8478 10.6532 19.2222 9.30847 18.4588C9.27275 18.438 8.25454 18.097 7.13288 19.4228C7.10606 19.4539 5.39859 21.0998 4.52652 21.7419C4.52652 21.7419 3.61175 23.2435 4.19373 26.4075C4.20084 26.4467 4.44277 27.5869 4.15213 28.431C4.13885 28.4694 4.60903 29.4099 4.69236 29.5705C4.71056 29.6065 5.20551 29.3297 4.94196 28.2706C4.94196 28.2706 4.77529 27.6676 4.9982 26.3672C4.9982 26.3672 4.90036 24.8513 4.69236 24.289C4.69236 24.289 5.0398 23.6058 5.20551 25.0268C5.21262 25.0833 5.41323 27.7075 5.74588 28.4713C5.7623 28.5084 6.36973 30.6959 5.9536 33.3774C5.94033 33.4664 5.87123 34.5575 5.41323 35.3205C5.39311 35.3557 5.12341 35.8576 5.7051 36.139C5.74232 36.1569 7.46498 38.5389 7.46498 38.981L8.56079 39.1019C8.56079 39.1019 8.29655 38.3636 7.83883 37.7611C7.83883 37.7611 7.71485 37.0633 8.35293 38.0016C8.37578 38.0354 8.85143 38.6853 8.97622 39.1416C8.99087 39.1965 10.0712 39.2623 10.0712 39.2623C10.0712 39.2623 9.01755 37.7206 8.76796 36.3797C8.76084 36.3408 8.94954 35.5217 8.51932 34.959C8.51932 34.959 8.29641 34.7984 8.93463 30.4953C8.93983 30.4553 9.64112 29.41 9.7662 28.7123C9.77249 28.6731 9.39221 27.6273 10.1128 26.9298C10.1128 26.9298 11.5413 26.353 11.749 27.1309C11.749 27.1309 13.1204 28.6726 16.6412 28.9137C16.6412 28.9137 18.5411 29.1692 20.5506 28.6321C20.5506 28.6321 21.2571 28.793 22.0618 28.8335C22.0618 28.8335 21.6312 33.0963 21.0079 34.437C21.0079 34.437 20.4675 35.1601 20.8004 36.2998C20.8159 36.3544 21.1327 36.5958 20.0931 38.5794C20.0746 38.6154 21.2157 38.8205 21.2157 38.8205C21.2157 38.8205 20.9243 38.886 21.9785 36.782C21.9972 36.7457 22.7268 36.0186 22.6436 34.5976C22.6406 34.5406 22.7537 33.3512 23.1421 32.5735C23.1421 32.5735 23.2672 31.9564 23.2256 33.3371C23.2256 33.3371 22.8092 35.24 23.0595 36.2597C23.0725 36.3149 23.4482 36.9173 23.0182 38.9007C23.0054 38.9564 24.1966 39.1817 24.1966 39.1817C24.1966 39.1817 23.7388 38.2428 24.3214 36.2597C24.3434 36.1822 25.0687 35.5216 24.6944 33.9397C24.6944 33.9397 24.8606 31.5143 25.7076 29.034C25.7076 29.034 25.915 28.7122 26.0814 28.2706C26.0814 28.2706 27.2183 27.7073 27.4677 27.211C27.4859 27.175 27.5509 26.5281 29.186 26.648C29.186 26.648 33.7616 26.9295 35.6882 24.4636C35.6882 24.4636 37.5307 23.2436 37.3648 19.3026C37.3648 19.3026 38.0297 18.0165 39.3743 17.4791C39.3743 17.4791 40.927 18.4985 40.927 16.6356C40.927 16.5956 40.719 15.2948 39.0421 15.1344C39.0002 15.1309 37.8321 15.1646 37.4894 15.4963C37.4478 15.5362 36.5184 15.817 36.0207 15.2552C35.9929 15.2246 35.5218 15.0136 35.0075 15.2949C34.9714 15.3149 33.8439 14.8536 33.8439 15.4963C33.8439 15.5362 34.0103 16.4755 33.7196 17.8157C33.7106 17.8552 33.5951 19.2625 33.5951 19.9601C33.5951 20.0003 33.5529 20.4423 33.5529 20.4423L33.5531 20.4422Z" fill="black"/>
<path fill-rule="evenodd" clip-rule="evenodd" d="M52.8027 16.5913V23.0299V24.8494H59.0259L59.0977 24.7092L59.1708 24.4996L59.2426 24.2898L59.314 24.1497L59.3874 23.8697L59.4592 23.6595L59.5311 23.5201L59.6041 23.2402V23.0999H57.9399L55.3355 23.17V21.35V18.9011L55.4077 15.2623V14.8418H52.8027V16.5913Z" fill="black"/>
<path fill-rule="evenodd" clip-rule="evenodd" d="M60.5469 15.8215V23.7993V24.8494H66.6969L66.7703 24.7793L66.8416 24.5696L66.9134 24.2898L66.9865 24.1497L67.0585 23.9395L67.1311 23.7296L67.2034 23.5201L67.2763 23.3803V23.0999H66.6244L63.0796 23.17V21.2804V20.5804H64.5987L66.4798 20.6503H66.6969L66.7703 20.5804V18.9011L66.6969 18.831H65.5387L62.9989 18.9003L63.0796 18.2711V16.5188L66.4798 16.5913H66.8416V14.8418H60.5469V15.8215Z" fill="black"/>
<path fill-rule="evenodd" clip-rule="evenodd" d="M115.027 14.9819L115.099 15.1218L115.171 15.1924L115.244 15.3318L115.316 15.4014L115.388 15.5415L115.461 15.6115L115.532 15.6816L115.605 15.8215L115.677 15.8914L115.751 16.032L115.823 16.1716L115.894 16.2417L115.968 16.312L116.039 16.4511L116.112 16.5212L116.184 16.5913L116.256 16.732L116.329 16.8711L116.401 16.9416L116.473 17.0818L116.546 17.1513L116.619 17.2914L116.691 17.3608L116.763 17.4312L116.835 17.5713L116.908 17.6413L116.979 17.7812L117.052 17.851L117.125 17.9914L117.197 18.0615L117.27 18.2011L117.342 18.2711L117.415 18.4113L117.487 18.551L117.558 18.621L117.632 18.761L117.704 18.831L117.776 18.9711L117.849 19.041L117.921 19.1811L117.993 19.2515L118.065 19.3911L118.139 19.4606L118.21 19.6007L118.282 19.7406L118.355 19.8104L118.427 19.9505L118.499 20.0207L118.572 20.1608L118.644 20.3007L118.717 20.3703L118.789 20.5104L118.862 20.5804V21.9801L118.789 24.0096V24.8494H121.393V23.6595V20.5104L121.466 20.3703L121.538 20.3007L121.61 20.1608L121.682 20.0908L121.755 20.0207L121.828 19.8808L121.9 19.8104L121.972 19.6708L122.045 19.6007L122.117 19.4606L122.189 19.3911L122.261 19.2515L122.334 19.1811L122.406 19.041L122.479 18.9711L122.551 18.9011L122.624 18.761L122.696 18.6911L122.769 18.551L122.841 18.4809L122.913 18.341L122.986 18.2711L123.058 18.131L123.13 18.0615L123.203 17.9212L123.274 17.851L123.348 17.7812L123.42 17.6413L123.492 17.5713L123.564 17.4312L123.636 17.3608L123.709 17.2214L123.781 17.1513L123.854 17.0818L123.926 16.9416L123.998 16.8711L124.07 16.732L124.143 16.6613L124.215 16.5913L124.288 16.4511L124.36 16.3811L124.433 16.2417L124.505 16.1716L124.576 16.032L124.649 15.9619L124.721 15.8914L124.794 15.7516L124.867 15.6816L124.939 15.5415L125.012 15.4714L125.084 15.4014L125.156 15.3318L125.229 15.1924L125.3 15.1218L125.372 14.9819V14.8418H122.551L122.479 14.9819L122.406 15.0521L122.334 15.2623L122.261 15.3318L122.189 15.4714L122.117 15.5415L122.045 15.7516L121.972 15.8215L121.9 15.9619L121.828 16.102L121.755 16.2417L121.682 16.3811L121.61 16.4511L121.538 16.5913L121.466 16.732L121.393 16.8711L121.322 17.0117L121.249 17.1513L121.177 17.2214L121.105 17.3608L121.031 17.5012L120.96 17.6413L120.887 17.7812L120.815 17.9212L120.743 17.9914L120.67 18.2011L120.598 18.2711L120.525 18.4809L120.453 18.551L120.381 18.6911V18.831H120.236V18.6911L120.163 18.551L120.091 18.4113L120.019 18.2711L119.946 18.2011L119.874 17.9914L119.803 17.9212L119.73 17.7812L119.657 17.6413L119.585 17.5012L119.513 17.3608L119.44 17.2214L119.367 17.1513L119.295 17.0117L119.223 16.8711L119.151 16.732L119.078 16.5913L119.006 16.4511L118.934 16.3811L118.862 16.2417L118.789 16.102L118.717 15.9619L118.644 15.8914L118.572 15.7516L118.499 15.6115L118.427 15.4714L118.355 15.3318L118.282 15.2623L118.21 15.1218L118.139 14.9819L118.065 14.8418H115.027V14.9819Z" fill="black"/>
<path fill-rule="evenodd" clip-rule="evenodd" d="M86.6641 20.8603L86.5914 21.1405L86.5192 21.35L86.4475 21.4904L86.3745 21.6302L86.3026 21.7004L86.2296 21.84L86.1576 21.9106L86.0846 21.9802L86.0127 22.1204L85.9408 22.1905L85.8674 22.2604L85.7239 22.3302L85.6509 22.4003L85.5792 22.4705L85.506 22.5409L85.3622 22.6101L85.2167 22.6805L85.0724 22.7506L84.9269 22.8202L84.7839 22.8905L84.4941 22.9603L84.2767 23.0305L83.77 23.1006L82.1056 23.1707V22.7509V16.8718V16.5177L83.6249 16.592L84.2765 16.6622L84.6383 16.7327L84.7838 16.8023L84.9993 16.8719L85.1439 16.9424L85.2891 17.0125L85.4343 17.0827L85.5792 17.1521L85.6509 17.2223L85.7958 17.2924L85.8675 17.3617L85.9409 17.432L86.0129 17.5021L86.0847 17.5723L86.1578 17.7124L86.2298 17.7822L86.3027 17.9221L86.3747 17.9924L86.4476 18.132L86.5193 18.2721L86.5916 18.4818L86.6642 18.6921L86.7365 18.9721V20.5813L86.6642 20.8612L86.6641 20.8603ZM79.502 15.1218L79.5737 16.5212V23.1001L79.502 24.5697V24.8496H84.1316L84.7109 24.7795L85.0724 24.7093L85.4345 24.6395L85.6511 24.5696L85.8677 24.4995L86.0849 24.4296L86.3028 24.3595L86.3748 24.2896L86.5917 24.2194L86.7366 24.1495L86.8815 24.0794L87.0264 24.0092L87.0984 23.9391L87.2428 23.8692L87.315 23.799L87.4608 23.7291L87.5323 23.659L87.6046 23.5889L87.6771 23.5195L87.8223 23.4497L87.8943 23.3795V23.2394H88.0389V23.0993H88.1841L88.2559 22.9591L88.3287 22.8893L88.401 22.819L88.4736 22.6794L88.5462 22.609L88.6179 22.5398L88.6908 22.3994L88.7625 22.2596L88.8359 22.1897L88.9074 21.9794L88.9791 21.9098L89.0522 21.6996L89.1247 21.4896L89.1964 21.3492L89.2694 21.0001L89.3416 20.7899L89.4143 20.23V18.7601L89.3416 18.3401L89.2694 18.0606L89.1964 17.7803L89.1247 17.6404L89.0522 17.4301L88.9791 17.2905L88.9074 17.1504L88.8359 17.0108L88.7625 16.9407L88.6908 16.8006L88.6179 16.731L88.5462 16.6604L88.4736 16.5903L88.401 16.5202L88.3287 16.38L88.2559 16.311L88.1841 16.2407L88.111 16.1706L88.0388 16.101L87.8941 16.0309L87.8222 15.9607L87.7504 15.8901L87.6044 15.8202L87.5322 15.7503L87.3878 15.6802L87.3149 15.6101L87.1708 15.54L87.0264 15.4698L86.8815 15.3997L86.6644 15.3301L86.5194 15.2605L86.2299 15.1906L86.013 15.12L85.7241 15.0501L85.4346 14.98L84.9271 14.9094L83.987 14.8398H79.5022V15.1198L79.502 15.1218Z" fill="black"/>
<path fill-rule="evenodd" clip-rule="evenodd" d="M71.6876 20.648L71.7606 20.5081L71.8326 20.2984L71.9055 20.0884L71.9775 19.9483L72.0497 19.7383L72.1224 19.5283L72.1946 19.3186L72.2674 19.1787L72.3397 18.9687L72.4123 18.8286L72.4846 18.6186L72.5563 18.4089L72.6283 18.1986L72.7012 17.9889L72.7729 17.8485L72.8458 17.6388L72.9178 17.4285L72.9905 17.2889L73.0633 17.4986L73.1348 17.7089L73.2076 17.9186L73.2796 18.059L73.3523 18.3385L73.4245 18.4783L73.4965 18.7585L73.5694 18.8986L73.6417 19.1787L73.7142 19.3887L73.7867 19.5283L73.859 19.808L73.9315 19.9481L74.0031 20.1584L74.0759 20.3679L74.1485 20.5781L74.2208 20.7884L71.6054 20.7847L71.6881 20.648H71.6876ZM72.0497 14.8395L71.9775 14.9797L71.9055 15.1902L71.8326 15.3295L71.7606 15.5392L71.6876 15.6794L71.6157 15.8891L71.5434 16.0298L71.4712 16.2395L71.3989 16.3788L71.3261 16.5189L71.2535 16.7297L71.1812 16.8688L71.1085 17.0796L71.0363 17.2192L70.9635 17.3585L70.8922 17.4989L70.8195 17.7092L70.7473 17.8488L70.675 18.0593L70.6032 18.269L70.5296 18.3389L70.4579 18.5489L70.3852 18.689L70.313 18.899L70.2413 19.0388L70.1681 19.179L70.0964 19.389L70.0233 19.5286L69.9513 19.7386L69.879 19.8084L69.8061 20.0187L69.7344 20.1588L69.6612 20.3683L69.5895 20.5084L69.5175 20.6483L69.4446 20.8582L69.3729 20.9989L69.3002 21.1385L69.2277 21.2784L69.1552 21.4884L69.0829 21.6282L69.0107 21.7683L68.9377 21.9781L68.8658 22.1182L68.7932 22.2581L68.7199 22.3979L68.6483 22.6077L68.5764 22.748L68.5041 22.8879L68.4316 23.0979L68.3596 23.168L68.2865 23.3783L68.2143 23.5181L68.1413 23.6575L68.0694 23.7973L67.9964 24.0076L67.9247 24.1477L67.8528 24.2879L67.7797 24.4277L67.7074 24.5676L67.6348 24.7773V24.8474H70.0226L70.0957 24.7773L70.1674 24.5676L70.2406 24.4277L70.3123 24.2175L70.3845 24.0075L70.4572 23.8676L70.5289 23.6573L70.6025 23.518L70.6744 23.3075L70.7466 23.1679L70.8189 22.9576L70.8915 22.7479L70.9628 22.6075V22.4655L74.7981 22.5383L74.871 22.748L74.943 22.9578L75.0147 23.168L75.0877 23.3783L75.1596 23.5875L75.233 23.7276L75.3048 24.0077L75.3779 24.2177L75.4499 24.3579L75.5216 24.5678L75.5945 24.7074L75.6665 24.8476H78.561V24.6376L78.4884 24.5677L78.4164 24.3577L78.3441 24.2176L78.2711 24.0076L78.1991 23.8677L78.1259 23.7276L78.0542 23.5181L77.9819 23.3783L77.9093 23.2382L77.8376 23.098L77.7646 22.888L77.6927 22.7482L77.6199 22.6078L77.5476 22.3981L77.4758 22.2582L77.4027 22.0482L77.3307 21.9086L77.2585 21.6983L77.1858 21.5585L77.1131 21.4184L77.0409 21.2086L76.9686 21.0685L76.8964 20.8582L76.8239 20.7181L76.7513 20.5084L76.6794 20.3683L76.6068 20.1588L76.5343 20.0887L76.4621 19.8787L76.3894 19.6687L76.3174 19.5286L76.2445 19.3188L76.1722 19.179L76.1 18.969L76.0275 18.8289L75.9555 18.6189L75.8826 18.4091L75.8106 18.269L75.7376 18.0593L75.6657 17.9189L75.5937 17.7092L75.5208 17.569L75.4491 17.3585L75.3771 17.149L75.304 16.9393L75.2322 16.7296L75.1588 16.5889L75.0868 16.3787L75.0139 16.2393L74.9422 16.0296L74.8702 15.889L74.7973 15.6092L74.7253 15.399L74.6533 15.2599L74.5804 15.0497L74.5079 14.8394L74.4356 14.7695H72.1205L72.0478 14.8394L72.0497 14.8395Z" fill="black"/>
<path fill-rule="evenodd" clip-rule="evenodd" d="M90.1387 14.9819L90.2109 15.1218L90.283 15.3318L90.3558 15.4714L90.428 15.6816L90.5005 15.8914L90.5735 16.102L90.6451 16.2417L90.7168 16.4511L90.7897 16.6613L90.8628 16.8015L90.9349 17.0117L91.0066 17.1513L91.0797 17.4312L91.1515 17.5713L91.2235 17.7812L91.2963 17.9914L91.3682 18.2011L91.4403 18.4113L91.5133 18.551L91.5856 18.761L91.6583 18.9711L91.7302 19.1811L91.8026 19.3911L91.8751 19.6007L91.9469 19.8104L92.0198 19.9505L92.0918 20.2309L92.1644 20.3703L92.2367 20.5804L92.3087 20.7906L92.3821 21.0009L92.4536 21.2106L92.5262 21.4203L92.5993 21.6302L92.6709 21.8399L92.7437 22.0502L92.8152 22.1903L92.888 22.47L92.9603 22.68L93.0324 22.89L93.1057 23.0999L93.1776 23.2401L93.2496 23.5201L93.3225 23.6595L93.3939 23.9395L93.467 24.1497L93.5395 24.3597L93.6116 24.5696L93.6842 24.7793L93.756 24.9194H96.1441L96.2161 24.7793L96.289 24.5696L96.3607 24.3597L96.4336 24.0797L96.5059 23.9395L96.5777 23.6595L96.6508 23.5201L96.7225 23.2401L96.7955 23.0999L96.8677 22.8196L96.9397 22.68L97.0123 22.3999L97.0846 22.1903L97.1572 22.0502L97.2295 21.7703L97.3008 21.6302L97.3739 21.4203L97.4461 21.2106L97.5188 21.0009L97.5916 20.7906L97.6637 20.5804L97.7359 20.3703L97.8078 20.2309V19.9505H97.9534V20.0908L98.0252 20.3703L98.0972 20.5804L98.17 20.7201L98.2418 21.0009L98.3149 21.1405L98.3865 21.35L98.459 21.5605L98.5319 21.7703L98.6036 21.9801L98.6768 22.1903L98.7488 22.3999L98.8216 22.6096L98.8937 22.8196L98.9653 23.0299L99.0381 23.2401L99.1103 23.4503L99.183 23.6595L99.2553 23.9395L99.3272 24.0797L99.4002 24.3597L99.4724 24.4996L99.5452 24.7793L99.6171 24.9194H102.221L102.293 24.7092L102.366 24.4996L102.438 24.3597L102.511 24.0797L102.583 23.9395L102.656 23.6595L102.729 23.4503L102.8 23.2401L102.873 23.0299L102.945 22.89L103.017 22.6096L103.09 22.47L103.162 22.2601L103.235 22.0502L103.307 21.8399L103.379 21.6302L103.452 21.4203L103.524 21.2106L103.596 21.0704L103.669 20.7906L103.741 20.6502L103.813 20.4405L103.886 20.2309L103.958 20.0207L104.031 19.8104L104.103 19.6708L104.176 19.3911L104.248 19.2515L104.319 19.041L104.392 18.831L104.464 18.6911L104.537 18.4113L104.609 18.2711L104.681 18.0615L104.754 17.9211L104.826 17.6413L104.898 17.5012L104.971 17.2914L105.044 17.0818L105.116 16.9416L105.188 16.6613L105.261 16.5212L105.333 16.312L105.404 16.1716L105.477 15.9619L105.55 15.7516L105.622 15.5415L105.695 15.3318L105.767 15.1924L105.84 14.9819V14.8418H103.379L103.307 14.9114L103.235 15.1218L103.162 15.4014L103.09 15.6115L103.017 15.8215L102.945 16.102L102.873 16.2417L102.8 16.5212L102.729 16.732L102.656 17.0117L102.583 17.2214L102.511 17.4312L102.438 17.7114L102.366 17.9211L102.293 18.2011L102.221 18.4113L102.15 18.621L102.077 18.831L102.005 19.1107L101.933 19.3911L101.86 19.6007L101.788 19.8808L101.715 20.0207L101.643 20.3007L101.571 20.5104L101.498 20.7906L101.425 21.0704L101.353 21.2804L101.28 21.5605L101.209 21.7703V22.0502H101.065V21.8399L100.992 21.5605L100.919 21.35L100.847 21.1405L100.774 20.8602L100.702 20.6502L100.63 20.3703L100.557 20.2309L100.485 19.9505L100.413 19.7405L100.341 19.4606L100.267 19.2515L100.195 19.041L100.123 18.761L100.051 18.621L99.9789 18.341L99.9066 18.2011L99.8337 17.9211L99.7617 17.6413L99.6889 17.5012L99.6171 17.2214L99.5452 17.0117L99.4724 16.8015L99.4002 16.5913L99.3272 16.3811L99.2553 16.1716L99.183 15.9619L99.1103 15.6816L99.0381 15.5415L98.9653 15.2623L98.8937 15.1218L98.8216 14.8418H95.9989V14.9819L96.0714 15.1924L96.1441 15.3318L96.2161 15.5415L96.289 15.6816L96.3607 15.9619L96.4336 16.1716L96.5059 16.312L96.5777 16.5212L96.6508 16.732L96.7225 16.9416L96.7955 17.0818L96.8677 17.3608V17.7114L96.7955 17.9914L96.7225 18.131L96.6508 18.341L96.5777 18.4809L96.5059 18.761L96.4336 18.9011L96.3607 19.1107L96.289 19.321L96.2161 19.5307L96.1441 19.7405L96.0714 19.8808L95.9989 20.1608L95.9273 20.3007L95.8548 20.5804L95.782 20.7201L95.7105 21.0009L95.6377 21.2106L95.5649 21.35L95.4922 21.6302L95.4205 21.8399V22.0502H95.2753V21.8399L95.2032 21.5605L95.1312 21.2804L95.0588 21.0704L94.986 20.7906L94.9132 20.5804L94.8414 20.3703L94.7697 20.1608L94.6968 19.8808L94.6248 19.6007L94.5523 19.3911L94.4796 19.1107L94.4065 18.9711L94.3347 18.6911L94.2627 18.4809L94.1899 18.2011L94.1181 17.9914L94.0461 17.7812L93.9732 17.5012L93.9012 17.3608L93.8282 17.0818L93.756 16.8711L93.6842 16.6613L93.6116 16.4511L93.5395 16.1716L93.467 15.9619L93.3939 15.7516L93.3225 15.5415L93.2496 15.3318L93.1776 15.1218L93.1057 14.9114L93.0324 14.8418H90.1387V14.9819Z" fill="black"/>
<path fill-rule="evenodd" clip-rule="evenodd" d="M109.093 20.7177L109.166 20.508L109.238 20.3679L109.311 20.1584L109.383 20.0183L109.455 19.808L109.528 19.5983L109.6 19.4582L109.673 19.249L109.745 19.1083L109.817 18.8986L109.89 18.6886L109.962 18.4783L110.034 18.3385L110.107 18.1285L110.179 17.9185L110.252 17.7088L110.324 17.4985L110.396 17.3581L110.469 17.1486V17.4285L110.541 17.6388L110.614 17.7786L110.686 18.059L110.758 18.1986L110.831 18.4783L110.903 18.6185L110.976 18.8285L111.048 19.0384L111.12 19.249L111.192 19.4582L111.265 19.6684L111.338 19.8784L111.409 20.0884L111.482 20.2984L111.555 20.5081L111.627 20.7179H109.094L109.093 20.7177ZM109.455 14.909L109.383 15.1195L109.311 15.2599L109.238 15.4691L109.166 15.6092L109.093 15.7494L109.021 15.889L108.949 16.0997L108.876 16.2393L108.804 16.4488L108.731 16.6591L108.66 16.7992L108.587 17.0094L108.514 17.0796L108.442 17.2893L108.369 17.4289L108.298 17.6392L108.225 17.779L108.153 17.9189L108.08 18.1289L108.008 18.269L107.935 18.4787L107.863 18.6189L107.791 18.7587L107.718 18.8988L107.646 19.1086L107.573 19.3188L107.501 19.389L107.428 19.5987L107.357 19.7385L107.284 19.9485L107.211 20.0887L107.14 20.2288L107.067 20.4385L106.995 20.5784L106.923 20.7181L106.85 20.8582L106.778 21.0685L106.705 21.2086L106.633 21.348L106.56 21.5585L106.488 21.6983L106.416 21.8379L106.343 21.9781L106.271 22.1883L106.198 22.3279L106.126 22.468L106.054 22.6076L105.981 22.8176L105.909 22.9578L105.837 23.0979L105.764 23.3076L105.692 23.3783L105.62 23.5875L105.547 23.7276L105.475 23.8677L105.402 24.0777L105.33 24.2176L105.258 24.3577L105.185 24.4976L105.113 24.7073V24.8474H107.501L107.573 24.7073L107.645 24.4976L107.718 24.3577L107.79 24.1477L107.863 23.9375L107.935 23.7973L108.008 23.5873L108.08 23.3781L108.152 23.238L108.224 23.0278L108.297 22.8175L108.369 22.6075C108.493 22.3128 109.899 22.4679 110.323 22.4679C110.747 22.4679 112.153 22.3128 112.277 22.6075L112.349 22.8879L112.42 23.0979L112.494 23.3076L112.565 23.4483L112.639 23.7275L112.711 23.8676L112.784 24.0776L112.856 24.2878L112.927 24.4976L113 24.7073L113.072 24.8474H116.038V24.7073L115.967 24.6374L115.894 24.4277L115.822 24.2878L115.75 24.1477L115.677 23.9375L115.605 23.7973L115.532 23.6575L115.46 23.5181L115.387 23.3076L115.315 23.168L115.243 22.9578L115.17 22.8176L115.098 22.678L115.026 22.468L114.953 22.3279L114.881 22.1182L114.808 22.0481L114.737 21.8378L114.663 21.6982L114.592 21.4882L114.519 21.2782L114.447 21.1384L114.374 20.9988L114.302 20.8581L114.23 20.6481L114.158 20.5083L114.085 20.2985L114.012 20.0885L113.94 19.9484L113.868 19.7384L113.795 19.5985L113.723 19.3888L113.65 19.2492L113.578 19.0387L113.505 18.8988L113.433 18.6888L113.361 18.5487L113.288 18.3387L113.216 18.1287L113.143 17.9891L113.072 17.7789L112.999 17.639L112.926 17.4288L112.855 17.219L112.783 17.0794L112.71 16.8687L112.638 16.7296L112.564 16.5188L112.493 16.3787L112.419 16.0997L112.348 15.9596L112.276 15.7494L112.203 15.5391L112.131 15.399L112.059 15.1194L111.986 14.9795L111.914 14.7695H109.526L109.454 14.9089L109.455 14.909Z" fill="black"/>
<path d="M58.9922 33.2247H55.4733V29.2625C55.4733 29.081 55.3796 28.9902 55.1917 28.9902H53.2367C53.0491 28.9902 52.9551 29.0811 52.9551 29.2625V39.5313C52.9551 39.7127 53.0491 39.8036 53.2367 39.8036H55.1917C55.3796 39.8036 55.4733 39.7127 55.4733 39.5313V35.4782H58.9922V39.5313C58.9922 39.7127 59.086 39.8036 59.2739 39.8036H61.2286C61.4165 39.8036 61.5102 39.7127 61.5102 39.5313V29.2625C61.5102 29.081 61.4165 28.9902 61.2286 28.9902H59.2739C59.086 28.9902 58.9922 29.0811 58.9922 29.2625V33.2247ZM70.4094 34.9489C70.4094 32.6652 68.8456 31.7275 66.9215 31.7275C64.9357 31.7275 63.2932 32.6952 63.2932 34.9489V36.8541C63.2932 38.9563 64.9357 40.0001 66.9686 40.0001C68.3446 40.0001 69.3617 39.5916 70.1588 39.0017C70.2999 38.8959 70.2999 38.7598 70.2059 38.6237L69.3925 37.5803C69.2988 37.4442 69.1737 37.4141 69.0332 37.5199C68.47 37.8374 67.8287 38.0642 67.0466 38.0642C66.2177 38.0642 65.7016 37.671 65.7016 36.8998V36.6579H70.1276C70.3154 36.6579 70.4092 36.567 70.4092 36.4008V34.949L70.4094 34.9489ZM68.1105 34.8428V35.1603H65.7017V34.8428C65.7017 34.0111 66.1867 33.648 66.9062 33.648C67.6099 33.648 68.1106 34.0261 68.1106 34.8428H68.1105ZM72.5988 32.4533C72.4897 32.529 72.38 32.6952 72.38 32.8618L72.3954 34.0715C72.4737 34.2228 72.6301 34.2381 72.7709 34.1624C73.2245 33.9205 74.0379 33.7389 74.7259 33.7389C75.7426 33.7389 76.0394 34.1776 76.0394 34.979V35.1304C75.6488 35.085 75.1949 35.0395 74.7103 35.0395C72.5835 35.0395 71.3007 35.826 71.3007 37.3988C71.3007 39.1831 72.7238 40.0001 74.9762 40.0001C76.0394 40.0001 77.2754 39.8336 78.1978 39.5613C78.3543 39.5159 78.4326 39.4102 78.4326 39.2589V35.1152C78.4326 32.8165 77.1659 31.7277 75.0075 31.7277C73.6627 31.7277 73.3341 31.9997 72.5988 32.4535V32.4533ZM73.725 37.3383C73.725 36.8542 74.1003 36.5821 74.9607 36.5821C75.3046 36.5821 75.7268 36.6123 76.0394 36.6727V38.0036C75.7581 38.0641 75.336 38.1246 74.9762 38.1246C74.2254 38.1246 73.725 37.8675 73.725 37.3382V37.3383ZM83.9379 39.9093C84.0475 39.8941 84.1098 39.7731 84.1098 39.637V38.1247C84.1098 37.9433 84.0002 37.8526 83.8128 37.8676C83.6563 37.8828 83.4844 37.8828 83.3281 37.8828C82.7181 37.8828 82.405 37.5351 82.405 36.7789V29.2625C82.405 29.081 82.3113 28.9902 82.1394 28.9902H80.2936C80.106 28.9902 80.012 29.0811 80.012 29.2625V37.0661C80.012 38.9112 81.0602 40.0002 82.9054 40.0002C83.3281 40.0002 83.6717 39.9547 83.9379 39.9093ZM87.4411 36.809V34.0716H88.8331C89.0052 34.0716 89.1148 33.981 89.1148 33.8148V32.3629C89.1148 32.1965 89.0052 32.1058 88.8331 32.1058H87.4258L87.2377 30.2908C87.2223 30.1245 87.1284 30.0489 86.9561 30.0489H85.3297C85.1423 30.0489 85.0481 30.1398 85.0481 30.306V37.0966C85.0481 39.0323 86.2678 39.9851 88.0823 39.9851C88.4577 39.9851 88.8019 39.9547 89.0677 39.9094C89.224 39.8793 89.2868 39.7583 89.2868 39.6071V38.1248C89.2868 37.9434 89.193 37.8677 88.9894 37.898C88.8174 37.9132 88.6298 37.9282 88.4887 37.9282C87.8007 37.9282 87.4411 37.5502 87.4411 36.8092V36.809ZM92.9148 31.9696V29.2625C92.9148 29.081 92.8213 28.9902 92.6494 28.9902H90.8036C90.6163 28.9902 90.522 29.0811 90.522 29.2625V39.5313C90.522 39.7127 90.6163 39.8036 90.8036 39.8036H92.6494C92.8214 39.8036 92.9148 39.7127 92.9148 39.5313V33.9657C93.1809 33.8599 93.6031 33.7691 93.9943 33.7691C94.9171 33.7691 95.3238 34.1928 95.3238 35.2209V39.5311C95.3238 39.7125 95.4175 39.8034 95.6049 39.8034H97.4504C97.6384 39.8034 97.732 39.7125 97.732 39.5311V35.2209C97.732 32.9524 96.434 31.7275 94.4944 31.7275C93.8379 31.7275 93.3375 31.8182 92.9148 31.9694V31.9696Z" fill="#C61531"/>
<path d="M103.493 28.7068C103.26 28.5828 102.994 28.5117 102.709 28.5117C102.206 28.5117 101.757 28.7328 101.46 29.0806C101.161 28.7328 100.712 28.5117 100.208 28.5117C99.9252 28.5117 99.6589 28.5828 99.4254 28.7068C98.9247 28.9748 98.5859 29.49 98.5859 30.0824C98.5859 30.2516 98.6147 30.414 98.6664 30.5657C98.9446 31.7771 101.46 33.3036 101.46 33.3036C101.46 33.3036 103.973 31.7771 104.252 30.5657C104.303 30.414 104.332 30.2516 104.332 30.0824C104.332 29.4898 103.994 28.9758 103.493 28.7068Z" fill="#C61531"/>
<defs>
<linearGradient id="paint0_linear_6061_23078" x1="-6.0461" y1="25.5817" x2="19.0909" y2="59.8477" gradientUnits="userSpaceOnUse">
<stop stop-color="#F16137"/>
<stop offset="0.25098" stop-color="#F58534"/>
<stop offset="0.721569" stop-color="#FFCD28"/>
<stop offset="1" stop-color="#FAED21"/>
</linearGradient>
</defs>
</svg>
